<svg id="Capa_1" enable-background="new 0 0 60 100" height="60" viewBox="0 0 512 512" width="100" xmlns="http://www.w3.org/2000/svg" xmlns:xlink="http://www.w3.org/1999/xlink"><linearGradient id="SVGID_1_" gradientUnits="userSpaceOnUse" x1="256" x2="256" y1="512" y2="0"><stop offset="0" stop-color="#b78fad"/><stop offset="1" stop-color="#eae5e7"/></linearGradient><g><g><path d="m497 512h-482c-8.284 0-15-6.716-15-15v-240c0-8.284 6.716-15 15-15h26v-22c0-43.491 25.371-81.169 62.09-99.009-13.59-12.777-22.09-30.91-22.09-50.991 0-38.598 31.402-70 70-70s70 31.402 70 70c0 20.081-8.5 38.214-22.09 50.991 36.719 17.84 62.09 55.518 62.09 99.009v22h70v-5c0-30.681 21.365-56.465 50-63.253v-16.747c0-8.284 6.716-15 15-15s15 6.716 15 15v16.747c28.635 6.788 50 32.572 50 63.253v5h36c8.284 0 15 6.716 15 15v240c0 8.284-6.716 15-15 15zm-467-30h452v-210h-452zm331-240h70v-5c0-19.299-15.701-35-35-35s-35 15.701-35 35zm-290 0h160v-22c0-44.112-35.888-80-80-80s-80 35.888-80 80zm80-212c-22.056 0-40 17.944-40 40s17.944 40 40 40 40-17.944 40-40-17.944-40-40-40zm256 422h-302c-8.284 0-15-6.716-15-15 0-8.271-6.729-15-15-15-8.284 0-15-6.716-15-15v-60c0-8.284 6.716-15 15-15 8.271 0 15-6.729 15-15 0-8.284 6.716-15 15-15h302c8.284 0 15 6.716 15 15 0 8.271 6.729 15 15 15 8.284 0 15 6.716 15 15v60c0 8.284-6.716 15-15 15-8.271 0-15 6.729-15 15 0 8.284-6.716 15-15 15zm-287-15h.01zm-2.57-15h277.14c4.527-12.768 14.662-22.903 27.43-27.43v-35.14c-12.768-4.526-22.903-14.662-27.43-27.43h-277.14c-4.527 12.768-14.662 22.903-27.43 27.43v35.141c12.768 4.526 22.903 14.661 27.43 27.429z" fill="url(#SVGID_1_)"/></g></g><g><rect x="100" y="320" width="300" height="100" fill-opacity="0.1"></rect>
    <text x="150" y="400" font-family="Verdana" font-size="70" fill="pink">Menu</text></g></svg>