<?xml version="1.0" standalone="no"?>
<!DOCTYPE svg PUBLIC "-//W3C//DTD SVG 20010904//EN"
 "http://www.w3.org/TR/2001/REC-SVG-20010904/DTD/svg10.dtd">
<svg version="1.0" xmlns="http://www.w3.org/2000/svg"
 width="372.000000pt" height="512.000000pt" viewBox="0 0 372.000000 512.000000"
 preserveAspectRatio="xMidYMid meet">

<g transform="translate(0.000000,512.000000) scale(0.100000,-0.100000)"
fill="#b78fad" stroke="none">
<path d="M2705 5094 c-330 -73 -591 -350 -645 -687 -16 -94 -9 -245 15 -339
10 -37 36 -106 59 -154 l43 -86 -124 -181 c-67 -99 -121 -182 -119 -184 1 -2
93 38 203 88 l200 91 80 -55 c100 -68 215 -113 345 -134 178 -29 371 7 538
100 90 51 248 204 299 289 108 185 145 399 102 603 -60 294 -269 528 -558 625
-88 30 -112 33 -233 36 -95 3 -156 -1 -205 -12z m355 -101 c243 -58 443 -243
526 -488 38 -115 45 -277 15 -395 -64 -257 -246 -454 -496 -537 -70 -23 -97
-26 -215 -27 -115 -1 -146 2 -210 22 -207 65 -358 193 -455 384 -60 121 -79
210 -73 356 8 187 65 329 186 463 184 202 453 285 722 222z"/>
<path d="M2795 4701 c-211 -96 -160 -410 69 -429 69 -6 118 11 169 57 51 45
77 102 77 166 0 159 -172 272 -315 206z"/>
<path d="M2603 4189 c-78 -38 -146 -143 -179 -274 l-17 -66 27 -28 c15 -16 47
-43 71 -60 48 -35 47 -36 60 44 3 22 14 65 23 95 l17 55 5 -130 5 -130 65 -25
c58 -21 80 -24 205 -24 125 0 147 3 205 24 l65 25 5 130 5 130 23 -81 c12 -44
22 -92 22 -106 0 -13 3 -27 6 -31 7 -6 110 69 133 97 29 35 -47 234 -116 303
-71 71 -82 73 -350 73 -221 0 -241 -1 -280 -21z"/>
<path d="M999 3850 c-116 -19 -225 -104 -275 -213 -24 -52 -28 -75 -29 -147 0
-77 3 -92 33 -152 41 -84 120 -158 200 -188 83 -32 215 -25 290 14 71 36 138
104 170 174 23 49 27 70 27 152 0 78 -4 104 -23 144 -71 154 -232 242 -393
216z"/>
<path d="M1458 3713 c-26 -30 -37 -59 -31 -81 7 -28 15 -28 33 2 l15 23 107
-61 c59 -33 107 -65 108 -69 0 -7 -165 -296 -175 -305 -2 -2 -29 10 -60 28
-61 35 -88 31 -64 -9 12 -18 11 -23 -3 -37 -14 -15 -20 -15 -33 -4 -14 11 -19
10 -37 -7 l-20 -21 70 -41 c92 -54 120 -54 148 1 15 29 16 29 35 12 26 -23
153 -213 147 -220 -6 -6 -138 46 -209 82 l-50 25 -392 -3 -392 -3 -52 -29
c-178 -99 -279 -306 -335 -691 -9 -59 -13 -198 -13 -405 0 -299 1 -317 20
-350 43 -73 138 -89 196 -34 17 16 32 38 35 50 3 11 7 166 8 345 2 279 6 340
24 439 20 108 67 280 77 280 3 0 5 -110 5 -244 l0 -245 -40 -28 c-30 -21 -40
-35 -40 -56 l0 -29 36 22 c19 12 37 21 38 19 31 -33 285 -424 279 -429 -15
-14 -514 -351 -526 -356 -9 -3 -274 373 -295 416 -1 3 31 30 73 59 59 41 75
57 75 77 0 13 -2 24 -5 24 -3 0 -53 -32 -111 -70 l-104 -71 166 -247 c92 -136
170 -250 174 -255 3 -4 67 33 141 83 l134 91 5 -623 c4 -555 7 -626 22 -653
72 -132 257 -141 343 -17 l30 44 3 764 2 764 35 0 35 0 0 -727 c1 -401 5 -747
9 -770 18 -94 88 -155 185 -161 81 -5 139 25 181 93 l30 48 3 1280 c2 1208 3
1279 20 1274 150 -50 190 -58 268 -55 68 3 87 7 122 31 54 35 82 90 82 162 0
106 -61 228 -218 437 -45 61 -85 115 -88 119 -3 5 11 37 30 72 60 107 55 116
-111 210 -88 50 -121 57 -145 30z m-329 -850 c25 -95 25 -90 -10 -108 -38 -20
-113 -16 -137 8 -13 14 -13 23 -2 76 l13 61 63 0 63 0 10 -37z m-4 -188 c3
-11 23 -156 46 -323 l41 -303 -34 -43 c-18 -23 -51 -65 -73 -94 -22 -28 -43
-51 -47 -52 -3 0 -39 41 -79 92 -58 74 -72 98 -71 123 2 16 20 160 42 320 22
159 40 292 40 295 0 3 29 5 65 5 58 0 66 -3 70 -20z"/>
<path d="M562 1908 c-8 -8 7 -37 59 -112 103 -149 106 -153 119 -140 8 8 -11
44 -76 135 -47 68 -87 125 -88 126 -1 2 -7 -2 -14 -9z"/>
<path d="M550 1687 c0 -37 55 -118 75 -111 17 7 13 16 -39 89 -34 48 -36 49
-36 22z"/>
</g>
</svg>
