<svg id="Capa_1" enable-background="new 0 0 513.525 513.525" fill="#ca849b" height="60" viewBox="0 0 513.525 513.525" width="512" xmlns="http://www.w3.org/2000/svg"><g><path d="m488.796 286.312h-3.915c-2.368-61.195-33.586-117.734-84.559-152.381-3.426-2.33-8.091-1.438-10.419 1.986-2.328 3.426-1.438 8.091 1.987 10.419 46.86 31.851 75.617 83.755 77.977 139.976h-357.46c-4.143 0-7.5 3.358-7.5 7.5s3.357 7.5 7.5 7.5h376.389c5.365 0 9.729 4.365 9.729 9.729v7.552c0 5.365-4.364 9.729-9.729 9.729h-464.067c-5.365 0-9.729-4.365-9.729-9.729v-7.552c0-5.365 4.364-9.729 9.729-9.729h55.715c4.143 0 7.5-3.358 7.5-7.5s-3.357-7.5-7.5-7.5h-35.792c3.946-94.789 82.28-170.69 178.021-170.69h69.18c25.517 0 50.151 5.279 73.219 15.689 3.775 1.704 8.217.024 9.921-3.751s.024-8.217-3.751-9.921c-25.02-11.292-51.729-17.017-79.389-17.017h-10.767v-27.9h10.11c14.859 0 26.949-12.089 26.949-26.95 0-14.86-12.09-26.949-26.949-26.949h-68.867c-14.859 0-26.949 12.089-26.949 26.949s12.09 26.95 26.949 26.95h10.11v27.9h-9.767c-104.013 0-189.076 82.629-193.031 185.69h-4.912c-13.635 0-24.729 11.093-24.729 24.729v7.552c0 13.636 11.094 24.729 24.729 24.729h150.977v30.388h-68.502c-25.375 0-46.02 20.645-46.02 46.02v7.072h-3.104c-13.898 0-25.205 11.307-25.205 25.205v17.492c0 13.898 11.307 25.205 25.205 25.205h397.365c13.898 0 25.205-11.307 25.205-25.205v-17.492c0-13.898-11.307-25.205-25.205-25.205h-3.104v-7.072c0-25.375-20.645-46.02-46.02-46.02h-68.502v-30.388h150.977c13.636 0 24.729-11.094 24.729-24.729v-7.552c0-13.636-11.093-24.729-24.729-24.729zm-278.416-240.541c0-6.589 5.36-11.949 11.949-11.949h68.867c6.589 0 11.949 5.36 11.949 11.949s-5.36 11.95-11.949 11.95h-68.867c-6.589 0-11.949-5.361-11.949-11.95zm37.059 26.95h18.646v27.9h-18.646zm189.902 347.008v7.072h-44.33c-4.143 0-7.5 3.358-7.5 7.5s3.357 7.5 7.5 7.5h62.435c5.627 0 10.205 4.578 10.205 10.205v17.492c0 5.627-4.578 10.205-10.205 10.205h-397.366c-5.627 0-10.205-4.578-10.205-10.205v-17.492c0-5.627 4.578-10.205 10.205-10.205h302.969c4.143 0 7.5-3.358 7.5-7.5s-3.357-7.5-7.5-7.5h-284.864v-7.072c0-17.104 13.915-31.02 31.02-31.02h299.117c17.104.001 31.019 13.916 31.019 31.02zm-114.522-46.019h-132.113v-30.388h132.113z"/><path d="m430.457 98.903c10.97 0 19.895 8.925 19.895 19.895v2.435c0 4.142 3.357 7.5 7.5 7.5s7.5-3.358 7.5-7.5v-2.435c0-19.241-15.653-34.895-34.895-34.895-4.143 0-7.5 3.358-7.5 7.5s3.357 7.5 7.5 7.5z"/><path d="m430.457 68.903c27.512 0 49.895 22.383 49.895 49.895v2.435c0 4.142 3.357 7.5 7.5 7.5s7.5-3.358 7.5-7.5v-2.435c0-35.783-29.111-64.895-64.895-64.895-4.143 0-7.5 3.358-7.5 7.5s3.357 7.5 7.5 7.5z"/><path d="m84.068 83.903c-19.241 0-34.895 15.654-34.895 34.895v2.435c0 4.142 3.357 7.5 7.5 7.5s7.5-3.358 7.5-7.5v-2.435c0-10.97 8.925-19.895 19.895-19.895 4.143 0 7.5-3.358 7.5-7.5s-3.357-7.5-7.5-7.5z"/><path d="m26.674 128.732c4.143 0 7.5-3.358 7.5-7.5v-2.435c0-27.512 22.383-49.895 49.895-49.895 4.143 0 7.5-3.358 7.5-7.5s-3.357-7.5-7.5-7.5c-35.783 0-64.895 29.112-64.895 64.895v2.435c0 4.143 3.357 7.5 7.5 7.5z"/></g></svg>